# xmcd
#
# Track frame offsets:
#	150
#	22148
#	37540
#	51807
#	75619
#	89226
#	101468
#	116994
#	140059
#	154235
#	168772
#	183149
#	193059
#	205330
#	217577
#
# Disc length: 3073 seconds
#
# Revision: 0
# Processed by: cddbd v1.5.1PL0 Copyright (c) Steve Scherf et al.
# Submitted via: EasyCDDAExtractor 8.1.4.1
#
DISCID=c90bff0f
DTITLE=Various Artist - Best Of Coe, Paycheck, and Haggard
DYEAR=2001
DGENRE=Country
TTITLE0=David Allan Coe - If That Ain't Country
TTITLE1=David Allan Coe - Longhaired Redneck
TTITLE2=David Allan Coe - The Ride
TTITLE3=David Allan Coe - You Never Even Called Me By My Name
TTITLE4=David Allan Coe - Tennessee Whiskey
TTITLE5=Johnny Paycheck - Take This Job And Shove It
TTITLE6=Johnny Paycheck - Yesterday's News Just Hit Home Today
TTITLE7=Johnny Paycheck - The Outlaw's Prayer
TTITLE8=Johnny Paycheck - Friend, Lover, Wife
TTITLE9=Johnny Paycheck - I'm The Only Hell (My Mama Ever Raised)
TTITLE10=Merle Haggard - I'm A Lonesome Fugitive
TTITLE11=Merle Haggard - Mama Tried
TTITLE12=Merle Haggard - Workin' Man Blues
TTITLE13=Merle Haggard - Okie From Muskogee
TTITLE14=Merle Haggard - The Fightin' Side Of Me
EXTD=
EXTT0=
EXTT1=
EXTT2=
EXTT3=
EXTT4=
EXTT5=
EXTT6=
EXTT7=
EXTT8=
EXTT9=
EXTT10=
EXTT11=
EXTT12=
EXTT13=
EXTT14=
PLAYORDER=
